<?xml version="1.0" standalone="no"?>
<!DOCTYPE svg PUBLIC "-//W3C//DTD SVG 20010904//EN"
 "http://www.w3.org/TR/2001/REC-SVG-20010904/DTD/svg10.dtd">
<svg version="1.0" xmlns="http://www.w3.org/2000/svg"
 width="500.000000pt" height="500.000000pt" viewBox="0 0 500.000000 500.000000"
 preserveAspectRatio="xMidYMid meet">
<metadata>
Created by potrace 1.14, written by Peter Selinger 2001-2017
</metadata>
<g transform="translate(0.000000,500.000000) scale(0.100000,-0.100000)"
fill="#000000" stroke="none">
<path d="M1075 4698 c-202 -22 -373 -105 -521 -252 -132 -132 -218 -298 -251
-488 -9 -52 -10 -2845 -1 -2913 44 -326 274 -611 579 -714 47 -16 101 -32 120
-35 19 -3 48 -9 64 -12 17 -3 665 -6 1440 -6 1259 -1 1419 1 1495 16 90 17
234 68 261 92 8 8 19 14 24 14 16 0 132 89 183 141 89 90 192 265 218 369 2 8
8 33 14 55 5 22 13 67 16 100 9 80 9 2797 0 2856 -13 89 -17 105 -43 184 -31
95 -42 120 -99 205 -130 198 -327 329 -575 381 -60 13 -2814 20 -2924 7z
m1651 -651 c12 -3 39 -8 60 -11 22 -4 57 -11 79 -17 320 -82 568 -226 782
-453 73 -78 183 -217 183 -232 0 -4 6 -15 14 -23 8 -9 39 -66 70 -126 88 -177
151 -412 155 -579 1 -39 4 -73 7 -78 10 -16 -11 -7 -75 31 -36 21 -106 62
-156 91 -49 29 -121 71 -160 94 -89 53 -94 56 -157 90 -29 15 -60 34 -69 42
-8 8 -19 14 -24 14 -4 0 -36 18 -71 40 -35 22 -68 40 -74 40 -5 0 -10 3 -10 8
0 4 -15 14 -32 21 -18 8 -55 29 -83 46 -27 18 -70 43 -95 57 -25 14 -85 49
-134 78 -111 66 -187 97 -279 115 -133 25 -307 6 -410 -46 -207 -106 -364
-296 -434 -527 -22 -74 -26 -107 -27 -222 -1 -113 3 -149 22 -219 13 -46 27
-91 32 -100 4 -9 20 -41 35 -71 60 -119 168 -247 260 -307 22 -14 52 -34 66
-44 49 -33 115 -56 224 -77 130 -25 319 13 455 90 42 24 92 52 113 63 20 11
37 23 37 27 0 5 5 8 11 8 7 0 64 31 128 69 64 38 139 81 166 97 28 15 52 31
55 34 3 3 21 14 40 23 19 9 60 33 90 52 30 19 75 45 100 58 25 13 71 40 103
60 31 20 60 37 62 37 3 0 24 12 48 27 23 14 67 40 97 56 30 16 62 35 70 41 8
6 29 19 45 28 l30 16 -7 -106 c-4 -59 -10 -118 -13 -132 -3 -14 -8 -41 -11
-60 -3 -19 -24 -91 -46 -160 -149 -469 -517 -842 -985 -1001 -63 -21 -129 -41
-146 -45 -18 -3 -51 -9 -75 -15 -147 -33 -423 -29 -600 7 -102 21 -297 87
-364 123 -29 16 -73 39 -98 53 -45 24 -101 58 -110 68 -3 3 -23 17 -45 33 -22
15 -56 41 -75 58 -19 17 -42 36 -50 43 -15 11 -106 108 -168 179 -18 20 -40
50 -50 65 -9 16 -35 56 -56 88 -78 118 -143 275 -192 461 -13 49 -17 69 -31
148 -13 74 -11 345 2 439 36 243 172 571 301 723 11 12 30 36 44 54 31 39 141
151 201 202 207 180 539 325 809 354 30 3 57 7 59 10 7 5 331 -4 357 -10z"/>
</g>
</svg>
